<svg xmlns="http://www.w3.org/2000/svg" xmlns:xlink="http://www.w3.org/1999/xlink" width="500" zoomAndPan="magnify" viewBox="0 0 375 374.999991" height="500" preserveAspectRatio="xMidYMid meet" version="1.0"><defs><clipPath id="e79c65fff8"><path d="M 37.5 37.5 L 150 37.5 L 150 150 L 37.5 150 Z M 37.5 37.5 " clip-rule="nonzero"/></clipPath><clipPath id="0b610eeb0e"><path d="M 93.75 37.5 C 62.683594 37.5 37.5 62.683594 37.5 93.75 C 37.5 124.816406 62.683594 150 93.75 150 C 124.816406 150 150 124.816406 150 93.75 C 150 62.683594 124.816406 37.5 93.75 37.5 " clip-rule="nonzero"/></clipPath></defs><rect x="-37.5" width="450" fill="#ffffff" y="-37.499999" height="449.999989" fill-opacity="1"/><rect x="-37.5" width="450" fill="#ffffff" y="-37.499999" height="449.999989" fill-opacity="1"/><rect x="-37.5" width="450" fill="#ffffff" y="-37.499999" height="449.999989" fill-opacity="1"/><g clip-path="url(#e79c65fff8)"><g clip-path="url(#0b610eeb0e)"><path fill="#10745c" d="M 37.5 37.5 L 150 37.5 L 150 150 L 37.5 150 Z M 37.5 37.5 " fill-opacity="1" fill-rule="nonzero"/></g></g><path fill="#302393" d="M 0.0117188 0 L 374.976562 0 L 374.976562 374.964844 L 0.0117188 374.964844 Z M 0.0117188 0 " fill-opacity="1" fill-rule="nonzero"/><path fill="#7dabea" d="M 374.976562 198.449219 L 374.976562 374.964844 L 0.0117188 374.964844 L 0 234.949219 C 0 234.949219 35.84375 173.277344 116.394531 216.070312 C 196.941406 258.863281 213.285156 169.710938 276.234375 175.796875 C 322.519531 180.269531 331.5 194.675781 374.976562 198.449219 Z M 374.976562 198.449219 " fill-opacity="1" fill-rule="nonzero"/><path fill="#f8fdff" d="M 293.839844 374.964844 L 28.277344 374.964844 C 28.277344 374.964844 43.378906 346.960938 77.363281 331.859375 C 111.34375 316.757812 125.1875 318.015625 107.785156 294.101562 C 90.386719 270.1875 121.414062 268.929688 137.773438 261.378906 C 154.136719 253.828125 147.890625 227.078125 147.890625 227.078125 C 151.910156 227.660156 155.945312 227.855469 160.003906 227.660156 C 170.691406 250.882812 190.023438 247.742188 200.285156 255.507812 C 219.300781 269.898438 175.949219 292.425781 218.742188 314.238281 C 261.535156 336.054688 293.839844 374.964844 293.839844 374.964844 Z M 145.339844 168.246094 C 146.84375 168.246094 148.347656 168.171875 149.84375 168.023438 C 151.339844 167.875 152.828125 167.65625 154.304688 167.363281 C 155.777344 167.066406 157.238281 166.703125 158.675781 166.265625 C 160.117188 165.828125 161.53125 165.324219 162.921875 164.746094 C 164.3125 164.171875 165.667969 163.527344 166.996094 162.820312 C 168.324219 162.109375 169.613281 161.339844 170.863281 160.503906 C 172.113281 159.667969 173.320312 158.769531 174.484375 157.816406 C 175.648438 156.863281 176.761719 155.851562 177.824219 154.789062 C 178.886719 153.726562 179.898438 152.613281 180.851562 151.449219 C 181.804688 150.285156 182.703125 149.078125 183.539062 147.828125 C 184.375 146.578125 185.144531 145.289062 185.855469 143.960938 C 186.5625 142.632812 187.207031 141.277344 187.78125 139.886719 C 188.359375 138.496094 188.863281 137.082031 189.300781 135.640625 C 189.738281 134.203125 190.101562 132.742188 190.398438 131.269531 C 190.691406 129.792969 190.910156 128.304688 191.058594 126.808594 C 191.207031 125.3125 191.277344 123.8125 191.277344 122.304688 C 191.277344 120.800781 191.207031 119.300781 191.058594 117.804688 C 190.910156 116.304688 190.691406 114.820312 190.398438 113.34375 C 190.101562 111.867188 189.738281 110.410156 189.300781 108.972656 C 188.863281 107.53125 188.359375 106.117188 187.78125 104.726562 C 187.207031 103.335938 186.5625 101.976562 185.855469 100.652344 C 185.144531 99.324219 184.375 98.035156 183.539062 96.785156 C 182.703125 95.535156 181.804688 94.328125 180.851562 93.164062 C 179.898438 92 178.886719 90.886719 177.824219 89.824219 C 176.761719 88.757812 175.648438 87.75 174.484375 86.796875 C 173.320312 85.839844 172.113281 84.945312 170.863281 84.109375 C 169.613281 83.273438 168.324219 82.5 166.996094 81.792969 C 165.667969 81.082031 164.3125 80.441406 162.921875 79.863281 C 161.53125 79.289062 160.117188 78.78125 158.675781 78.347656 C 157.238281 77.910156 155.777344 77.542969 154.304688 77.25 C 152.828125 76.957031 151.339844 76.738281 149.84375 76.589844 C 148.347656 76.441406 146.84375 76.367188 145.339844 76.367188 C 143.835938 76.367188 142.335938 76.441406 140.839844 76.589844 C 139.339844 76.738281 137.855469 76.957031 136.378906 77.25 C 134.902344 77.542969 133.445312 77.910156 132.003906 78.347656 C 130.566406 78.78125 129.152344 79.289062 127.761719 79.863281 C 126.371094 80.441406 125.011719 81.082031 123.6875 81.792969 C 122.359375 82.5 121.070312 83.273438 119.820312 84.109375 C 118.566406 84.945312 117.359375 85.839844 116.199219 86.796875 C 115.035156 87.75 113.921875 88.757812 112.859375 89.824219 C 111.792969 90.886719 110.785156 92 109.832031 93.164062 C 108.875 94.328125 107.980469 95.535156 107.144531 96.785156 C 106.308594 98.035156 105.535156 99.324219 104.828125 100.652344 C 104.117188 101.976562 103.476562 103.335938 102.898438 104.726562 C 102.324219 106.117188 101.816406 107.53125 101.382812 108.972656 C 100.945312 110.410156 100.578125 111.867188 100.285156 113.34375 C 99.992188 114.820312 99.773438 116.304688 99.625 117.804688 C 99.476562 119.300781 99.402344 120.800781 99.402344 122.304688 C 99.402344 123.8125 99.476562 125.3125 99.625 126.808594 C 99.773438 128.304688 99.992188 129.792969 100.285156 131.269531 C 100.578125 132.742188 100.945312 134.203125 101.382812 135.640625 C 101.816406 137.082031 102.324219 138.496094 102.898438 139.886719 C 103.476562 141.277344 104.117188 142.632812 104.828125 143.960938 C 105.535156 145.289062 106.308594 146.578125 107.144531 147.828125 C 107.980469 149.078125 108.875 150.285156 109.832031 151.449219 C 110.785156 152.613281 111.792969 153.726562 112.859375 154.789062 C 113.921875 155.851562 115.035156 156.863281 116.199219 157.816406 C 117.359375 158.769531 118.566406 159.667969 119.820312 160.503906 C 121.070312 161.339844 122.359375 162.109375 123.6875 162.820312 C 125.011719 163.527344 126.371094 164.171875 127.761719 164.746094 C 129.152344 165.324219 130.566406 165.828125 132.007812 166.265625 C 133.445312 166.703125 134.902344 167.066406 136.378906 167.363281 C 137.855469 167.65625 139.339844 167.875 140.839844 168.023438 C 142.335938 168.171875 143.835938 168.246094 145.339844 168.246094 Z M 145.339844 168.246094 " fill-opacity="1" fill-rule="nonzero"/></svg>