<svg xmlns="http://www.w3.org/2000/svg" xmlns:xlink="http://www.w3.org/1999/xlink" width="500" zoomAndPan="magnify" viewBox="0 0 375 374.999991" height="500" preserveAspectRatio="xMidYMid meet" version="1.0"><defs><g/><clipPath id="9c4b9bfde6"><path d="M 159 160 L 217 160 L 217 215.082031 L 159 215.082031 Z M 159 160 " clip-rule="nonzero"/></clipPath></defs><rect x="-37.5" width="450" fill="#ffffff" y="-37.499999" height="449.999989" fill-opacity="1"/><rect x="-37.5" width="450" fill="#ffffff" y="-37.499999" height="449.999989" fill-opacity="1"/><rect x="-37.5" width="450" fill="#ffffff" y="-37.499999" height="449.999989" fill-opacity="1"/><g fill="#131b62" fill-opacity="1"><g transform="translate(119.970037, 252.214174)"><g><path d="M 129.511719 -38.539062 L 115.246094 -38.539062 C 110.796875 -30.386719 104.683594 -23.714844 96.902344 -18.898438 C 89.121094 -13.894531 80.410156 -11.488281 71.148438 -11.488281 C 57.25 -11.488281 45.394531 -16.488281 35.574219 -26.867188 C 25.9375 -36.683594 21.308594 -48.730469 21.308594 -62.808594 C 21.308594 -76.890625 25.9375 -88.933594 35.574219 -98.941406 C 40.019531 -103.570312 45.394531 -107.277344 51.507812 -110.054688 C 57.4375 -112.835938 63.367188 -114.316406 69.292969 -114.316406 C 75.039062 -114.316406 80.039062 -113.578125 84.488281 -112.28125 C 98.011719 -108.203125 108.203125 -100.050781 115.058594 -87.636719 L 129.324219 -87.636719 C 124.507812 -99.496094 116.910156 -109.128906 106.351562 -116.542969 C 95.605469 -123.953125 83.933594 -127.65625 71.148438 -127.65625 C 53.546875 -127.65625 38.722656 -121.171875 26.496094 -108.390625 C 20.75 -102.460938 16.304688 -95.417969 13.15625 -87.636719 C 9.820312 -79.855469 8.335938 -71.519531 8.335938 -62.808594 C 8.335938 -45.023438 14.265625 -30.015625 26.496094 -17.417969 C 38.722656 -4.445312 53.546875 1.851562 71.148438 1.851562 C 83.933594 1.851562 95.605469 -1.851562 106.535156 -9.265625 C 117.097656 -16.675781 124.695312 -26.308594 129.511719 -38.539062 Z M 129.511719 -38.539062 "/></g></g></g><g clip-path="url(#9c4b9bfde6)"><path fill="#657786" d="M 203.402344 160.511719 C 194.292969 159.582031 187.898438 164.386719 184.914062 172.957031 C 182.03125 181.25 176.734375 183.449219 171.546875 185.015625 C 162.789062 187.640625 158.03125 195.851562 160.6875 204.523438 C 162.855469 211.597656 169.804688 215.082031 176.914062 215.082031 C 178.507812 215.082031 180.132812 214.847656 181.738281 214.367188 C 209.425781 206.054688 215.210938 189.550781 216.339844 178.65625 C 217.277344 169.652344 212.507812 161.4375 203.402344 160.511719 Z M 191.886719 175.496094 C 191.851562 175.640625 190.972656 179.035156 188.304688 182.667969 C 185.828125 186.042969 181.285156 190.289062 173.691406 191.28125 C 173.625 191.292969 173.570312 191.292969 173.511719 191.292969 C 172.835938 191.292969 172.246094 190.800781 172.144531 190.109375 C 172.042969 189.359375 172.574219 188.679688 173.332031 188.578125 C 186.019531 186.902344 189.183594 174.945312 189.21875 174.824219 C 189.398438 174.097656 190.144531 173.652344 190.890625 173.828125 C 191.625 174.019531 192.078125 174.757812 191.886719 175.496094 Z M 191.886719 175.496094 " fill-opacity="1" fill-rule="nonzero"/></g></svg>